<?xml version="1.0" encoding="UTF-8"?>
<svg xmlns="http://www.w3.org/2000/svg" xmlns:xlink="http://www.w3.org/1999/xlink" width="100px" height="100px" viewBox="0 0 100 100" version="1.1">
<g id="surface1">
<path style="fill-rule:evenodd;fill:rgb(99.607843%,99.607843%,99.607843%);fill-opacity:1;stroke-width:2.3457;stroke-linecap:butt;stroke-linejoin:miter;stroke:rgb(99.607843%,99.607843%,99.607843%);stroke-opacity:1;stroke-miterlimit:56.6064;" d="M 100.800703 51 C 100.800703 78.504141 78.504141 100.800703 51 100.800703 C 23.495859 100.800703 1.199297 78.504141 1.199297 51 C 1.199297 23.495859 23.495859 1.199297 51 1.199297 C 78.504141 1.199297 100.800703 23.495859 100.800703 51 Z M 100.800703 51 " transform="matrix(0.980392,0,0,0.980392,0,0)"/>
<path style=" stroke:none;fill-rule:nonzero;fill:rgb(15.294118%,32.941176%,68.627451%);fill-opacity:1;" d="M 99.804688 50 L 97.941406 50 L 97.84375 47.550781 L 97.648438 45.097656 L 97.351562 42.746094 L 96.960938 40.390625 L 96.46875 38.136719 L 95.882812 35.882812 L 95.097656 33.628906 L 94.117188 31.371094 L 93.136719 29.214844 L 92.15625 27.15625 L 90.980469 25.195312 L 89.707031 23.234375 L 88.332031 21.371094 L 86.960938 19.511719 L 85.390625 17.746094 L 83.824219 16.078125 L 82.15625 14.511719 L 80.390625 13.039062 L 78.53125 11.570312 L 76.667969 10.195312 L 74.707031 8.921875 L 72.746094 7.746094 L 70.6875 6.667969 L 68.628906 5.882812 L 66.46875 5 L 64.214844 4.214844 L 61.960938 3.53125 L 59.609375 3.039062 L 57.253906 2.648438 L 54.902344 2.351562 L 52.449219 2.15625 L 50 2.058594 L 50 0.195312 L 52.550781 0.292969 L 55.097656 0.488281 L 57.550781 0.785156 L 60 1.175781 L 62.351562 1.765625 L 64.707031 2.449219 L 66.960938 3.234375 L 69.214844 4.117188 L 71.46875 5.097656 L 73.628906 6.175781 L 75.6875 7.351562 L 77.746094 8.628906 L 79.707031 10 L 81.570312 11.46875 L 83.429688 13.039062 L 85.195312 14.707031 L 86.863281 16.46875 L 88.429688 18.332031 L 89.902344 20.195312 L 91.273438 22.15625 L 92.550781 24.117188 L 93.726562 26.175781 L 94.804688 28.332031 L 95.785156 30.488281 L 96.667969 32.746094 L 97.449219 35.097656 L 98.136719 37.449219 L 98.628906 39.804688 L 99.117188 42.253906 L 99.410156 44.707031 L 99.609375 47.253906 Z M 50 99.804688 L 50 97.941406 L 52.449219 97.84375 L 54.902344 97.648438 L 57.253906 97.351562 L 59.609375 96.960938 L 61.960938 96.46875 L 64.214844 95.882812 L 66.46875 95.097656 L 68.628906 94.117188 L 70.6875 93.136719 L 72.746094 92.058594 L 74.707031 90.882812 L 76.667969 89.609375 L 78.53125 88.234375 L 80.390625 86.863281 L 82.15625 85.292969 L 83.824219 83.726562 L 85.390625 82.058594 L 86.960938 80.292969 L 88.332031 78.429688 L 89.707031 76.570312 L 90.980469 74.609375 L 92.15625 72.648438 L 93.234375 70.589844 L 94.214844 68.53125 L 95.097656 66.371094 L 95.882812 64.117188 L 96.46875 61.863281 L 96.960938 59.511719 L 97.351562 57.15625 L 97.648438 54.804688 L 97.84375 52.351562 L 97.941406 49.902344 L 99.804688 49.902344 L 99.804688 52.449219 L 99.609375 55 L 99.3125 57.449219 L 98.824219 59.902344 L 98.332031 62.253906 L 97.648438 64.609375 L 96.863281 66.863281 L 95.980469 69.117188 L 95 71.273438 L 93.921875 73.429688 L 92.746094 75.488281 L 91.46875 77.550781 L 90.097656 79.511719 L 88.628906 81.371094 L 87.058594 83.234375 L 85.390625 85 L 83.628906 86.667969 L 81.765625 88.234375 L 79.902344 89.707031 L 77.941406 91.078125 L 75.882812 92.351562 L 73.824219 93.53125 L 71.570312 94.804688 L 69.3125 95.785156 L 67.058594 96.667969 L 64.804688 97.449219 L 62.449219 98.136719 L 60.097656 98.726562 L 57.648438 99.214844 L 55.195312 99.511719 L 52.648438 99.707031 Z M 0.195312 50 L 2.058594 50 L 2.058594 52.449219 L 2.351562 54.902344 L 2.648438 57.253906 L 3.039062 59.609375 L 3.53125 61.960938 L 4.214844 64.214844 L 5 66.46875 L 5.882812 68.628906 L 6.863281 70.6875 L 7.84375 72.84375 L 9.019531 74.804688 L 10.292969 76.765625 L 11.667969 78.628906 L 13.136719 80.488281 L 14.609375 82.253906 L 16.175781 83.921875 L 17.84375 85.488281 L 19.609375 87.058594 L 21.46875 88.429688 L 23.332031 89.804688 L 25.292969 91.078125 L 27.253906 92.253906 L 29.3125 93.332031 L 31.46875 94.3125 L 33.628906 95.195312 L 35.882812 95.980469 L 38.136719 96.570312 L 40.390625 97.058594 L 42.746094 97.449219 L 45.097656 97.746094 L 47.550781 97.941406 L 50 98.039062 L 50 99.902344 L 47.449219 99.902344 L 44.902344 99.707031 L 42.449219 99.410156 L 40 98.921875 L 37.648438 98.332031 L 35.292969 97.648438 L 32.941406 96.863281 L 30.6875 95.980469 L 28.53125 95 L 26.371094 93.921875 L 24.3125 92.746094 L 22.351562 91.46875 L 20.390625 90.097656 L 18.53125 88.628906 L 16.667969 87.058594 L 14.902344 85.390625 L 13.234375 83.628906 L 11.667969 81.765625 L 10.195312 79.902344 L 8.824219 77.941406 L 7.550781 75.882812 L 6.371094 73.824219 L 5.097656 71.570312 L 4.117188 69.410156 L 3.234375 67.15625 L 2.449219 64.902344 L 1.765625 62.550781 L 1.175781 60.195312 L 0.785156 57.746094 L 0.488281 55.292969 L 0.292969 52.746094 Z M 50 0.195312 L 50 2.058594 L 47.550781 2.15625 L 45.097656 2.351562 L 42.746094 2.648438 L 40.390625 3.039062 L 38.136719 3.53125 L 35.882812 4.214844 L 33.628906 5 L 31.371094 5.882812 L 29.214844 6.863281 L 27.15625 7.84375 L 25.195312 9.019531 L 23.234375 10.292969 L 21.371094 11.667969 L 19.511719 13.136719 L 17.746094 14.609375 L 16.078125 16.175781 L 14.511719 17.84375 L 13.039062 19.609375 L 11.570312 21.46875 L 10.195312 23.332031 L 8.921875 25.292969 L 7.746094 27.253906 L 6.667969 29.3125 L 5.882812 31.371094 L 5 33.53125 L 4.214844 35.785156 L 3.53125 38.039062 L 3.039062 40.292969 L 2.648438 42.648438 L 2.351562 45.097656 L 2.15625 47.550781 L 2.15625 50 L 0.195312 50 L 0.292969 47.449219 L 0.488281 44.902344 L 0.785156 42.449219 L 1.175781 40 L 1.765625 37.648438 L 2.449219 35.292969 L 3.234375 32.941406 L 4.117188 30.6875 L 5.097656 28.53125 L 6.175781 26.371094 L 7.351562 24.3125 L 8.628906 22.351562 L 10 20.390625 L 11.46875 18.53125 L 13.039062 16.667969 L 14.707031 14.902344 L 16.46875 13.234375 L 18.332031 11.667969 L 20.195312 10.195312 L 22.15625 8.824219 L 24.117188 7.550781 L 26.175781 6.371094 L 28.429688 5.097656 L 30.589844 4.117188 L 32.84375 3.234375 L 35.195312 2.449219 L 37.550781 1.765625 L 39.902344 1.175781 L 42.351562 0.785156 L 44.804688 0.488281 L 47.351562 0.292969 Z M 50 0.195312 "/>
<path style=" stroke:none;fill-rule:evenodd;fill:rgb(15.294118%,32.941176%,68.627451%);fill-opacity:1;" d="M 50 3.136719 C 75.882812 3.136719 96.863281 24.117188 96.863281 50 C 96.863281 75.882812 75.882812 96.863281 50 96.863281 C 24.117188 96.863281 3.136719 75.882812 3.136719 50 C 3.136719 24.117188 24.117188 3.136719 50 3.136719 Z M 15.390625 77.15625 L 18.824219 74.410156 L 19.410156 75.097656 L 15.882812 77.84375 C 15.882812 77.84375 15.390625 77.15625 15.390625 77.15625 Z M 16.765625 78.921875 L 19.902344 75.882812 L 20.882812 76.863281 L 19.214844 79.511719 L 21.960938 77.941406 L 22.84375 78.921875 L 19.609375 81.960938 L 19.117188 81.371094 L 21.570312 78.921875 L 18.429688 80.6875 L 17.84375 80.097656 L 19.804688 77.058594 L 17.253906 79.410156 C 17.351562 79.511719 16.765625 78.921875 16.765625 78.921875 Z M 20.785156 82.84375 L 23.726562 79.511719 L 26.175781 81.667969 L 25.6875 82.253906 L 23.921875 80.6875 L 23.332031 81.46875 L 25 82.941406 L 24.511719 83.53125 L 22.84375 82.058594 L 22.058594 82.941406 L 23.921875 84.609375 L 23.429688 85.195312 C 23.332031 85.097656 20.785156 82.84375 20.785156 82.84375 Z M 24.410156 85.785156 L 26.765625 82.058594 L 27.550781 82.550781 L 26.570312 84.019531 L 28.039062 85 L 29.019531 83.53125 L 29.804688 84.019531 L 27.449219 87.746094 L 26.667969 87.253906 L 27.746094 85.589844 L 26.273438 84.609375 L 25.195312 86.273438 Z M 28.53125 88.429688 L 30.6875 84.609375 L 31.46875 85.097656 L 29.3125 88.921875 Z M 32.15625 90.195312 L 33.726562 86.078125 L 35.097656 86.570312 C 35.589844 86.765625 35.882812 86.863281 36.078125 86.960938 C 36.273438 87.15625 36.46875 87.351562 36.46875 87.648438 C 36.570312 87.941406 36.46875 88.234375 36.371094 88.53125 C 36.273438 88.726562 36.175781 88.921875 35.980469 89.117188 C 35.785156 89.214844 35.6875 89.3125 35.488281 89.410156 C 35.292969 89.410156 35.195312 89.410156 35 89.410156 C 34.804688 89.410156 34.511719 89.3125 34.117188 89.117188 L 33.53125 88.921875 L 32.941406 90.488281 C 32.941406 90.589844 32.15625 90.195312 32.15625 90.195312 Z M 34.3125 87.15625 L 33.824219 88.332031 L 34.3125 88.53125 C 34.609375 88.628906 34.902344 88.726562 35 88.726562 C 35.097656 88.726562 35.195312 88.726562 35.292969 88.628906 C 35.390625 88.53125 35.488281 88.429688 35.488281 88.332031 C 35.589844 88.234375 35.589844 88.039062 35.488281 87.941406 C 35.488281 87.84375 35.390625 87.746094 35.195312 87.648438 C 35.097656 87.648438 34.902344 87.550781 34.609375 87.351562 C 34.707031 87.253906 34.3125 87.15625 34.3125 87.15625 Z M 40.292969 92.84375 L 39.410156 92.550781 L 39.214844 91.46875 L 37.449219 90.980469 L 36.863281 91.863281 L 35.980469 91.667969 L 38.824219 87.84375 L 39.707031 88.039062 C 39.804688 88.039062 40.292969 92.84375 40.292969 92.84375 Z M 39.214844 90.6875 L 39.019531 88.921875 L 38.039062 90.292969 Z M 41.273438 88.53125 L 42.253906 88.726562 L 42.84375 91.175781 L 44.117188 89.117188 L 45.097656 89.214844 L 43.039062 92.253906 C 42.84375 92.550781 42.648438 92.84375 42.449219 92.941406 C 42.253906 93.039062 42.058594 93.136719 41.765625 93.136719 C 41.46875 93.136719 41.273438 93.039062 41.175781 92.941406 L 41.273438 92.253906 C 41.371094 92.253906 41.46875 92.351562 41.570312 92.351562 C 41.765625 92.351562 41.863281 92.351562 42.058594 92.351562 C 42.15625 92.253906 42.253906 92.15625 42.351562 91.960938 C 42.351562 91.960938 41.273438 88.53125 41.273438 88.53125 Z M 47.746094 93.332031 L 47.746094 93.824219 L 46.863281 93.824219 L 46.863281 93.332031 C 46.175781 93.234375 45.6875 93.039062 45.390625 92.746094 C 45.097656 92.449219 45 91.960938 45.097656 91.46875 C 45.097656 90.980469 45.292969 90.589844 45.6875 90.292969 C 45.980469 90 46.46875 89.902344 47.15625 89.902344 L 47.15625 89.410156 L 48.039062 89.511719 L 48.039062 89.902344 C 48.726562 90 49.214844 90.195312 49.511719 90.488281 C 49.804688 90.785156 49.902344 91.273438 49.804688 91.765625 C 49.804688 92.253906 49.609375 92.648438 49.3125 92.941406 C 48.921875 93.234375 48.429688 93.429688 47.746094 93.332031 Z M 47.746094 92.648438 C 47.941406 92.648438 48.136719 92.648438 48.332031 92.550781 C 48.53125 92.550781 48.628906 92.449219 48.726562 92.253906 C 48.824219 92.15625 48.824219 91.960938 48.824219 91.667969 C 48.824219 91.078125 48.53125 90.6875 47.84375 90.589844 C 47.941406 90.6875 47.746094 92.648438 47.746094 92.648438 Z M 46.863281 92.550781 L 47.058594 90.589844 C 46.667969 90.589844 46.371094 90.589844 46.175781 90.785156 C 45.980469 90.882812 45.882812 91.175781 45.882812 91.570312 C 45.882812 92.15625 46.175781 92.449219 46.863281 92.550781 Z M 54.707031 93.824219 L 53.726562 93.824219 L 53.332031 92.84375 L 51.570312 92.84375 L 51.175781 93.824219 L 50.195312 93.824219 L 51.863281 89.410156 L 52.84375 89.410156 C 52.84375 89.511719 54.707031 93.824219 54.707031 93.824219 Z M 52.941406 92.15625 L 52.253906 90.488281 L 51.765625 92.15625 Z M 61.273438 92.746094 L 60.292969 92.941406 L 59.804688 92.058594 L 58.039062 92.351562 L 57.84375 93.332031 L 56.863281 93.53125 L 57.84375 88.824219 L 58.726562 88.726562 Z M 59.410156 91.273438 L 58.53125 89.804688 L 58.234375 91.570312 Z M 60.785156 88.234375 L 63.921875 87.15625 L 64.117188 87.84375 L 61.863281 88.628906 L 62.15625 89.609375 L 63.234375 89.214844 C 63.53125 89.117188 63.824219 89.117188 64.019531 89.117188 C 64.214844 89.117188 64.511719 89.214844 64.707031 89.410156 C 64.902344 89.511719 65.097656 89.804688 65.195312 90 C 65.292969 90.292969 65.292969 90.589844 65.195312 90.785156 C 65.097656 90.980469 65 91.175781 64.804688 91.371094 C 64.707031 91.46875 64.410156 91.570312 64.019531 91.765625 L 62.058594 92.449219 C 62.253906 92.449219 60.785156 88.234375 60.785156 88.234375 Z M 62.84375 91.46875 L 63.628906 91.175781 C 63.921875 91.078125 64.117188 90.980469 64.214844 90.980469 C 64.3125 90.882812 64.410156 90.882812 64.410156 90.6875 C 64.410156 90.589844 64.410156 90.488281 64.410156 90.292969 C 64.410156 90.097656 64.214844 90 64.117188 90 C 63.921875 90 63.726562 90 63.332031 90.097656 L 62.449219 90.390625 Z M 65.292969 86.765625 L 68.136719 85.488281 L 70 89.511719 L 69.214844 89.902344 L 67.648438 86.570312 L 66.46875 87.15625 L 67.253906 88.921875 C 67.449219 89.410156 67.648438 89.804688 67.648438 90 C 67.746094 90.195312 67.648438 90.390625 67.648438 90.589844 C 67.550781 90.785156 67.449219 90.882812 67.15625 90.980469 C 67.058594 90.980469 66.863281 91.078125 66.667969 91.175781 L 66.371094 90.589844 L 66.570312 90.488281 C 66.570312 90.292969 66.667969 90.195312 66.667969 90.195312 C 66.667969 90.097656 66.667969 90 66.667969 89.804688 L 66.371094 89.117188 Z M 73.429688 87.550781 L 72.550781 85.980469 L 72.351562 86.078125 C 72.15625 86.175781 71.960938 86.371094 71.863281 86.46875 C 71.863281 86.570312 71.765625 86.863281 71.765625 87.449219 L 71.667969 88.628906 L 70.785156 89.117188 L 70.785156 88.136719 C 70.785156 87.746094 70.785156 87.449219 70.882812 87.253906 C 70.882812 87.058594 70.980469 86.863281 71.078125 86.765625 C 70.6875 86.863281 70.390625 86.960938 70.097656 86.765625 C 69.804688 86.667969 69.609375 86.46875 69.511719 86.175781 C 69.410156 85.980469 69.3125 85.6875 69.3125 85.488281 C 69.3125 85.292969 69.410156 85.097656 69.609375 84.902344 C 69.707031 84.707031 70 84.511719 70.390625 84.3125 L 72.058594 83.429688 L 74.214844 87.253906 C 74.214844 87.058594 73.429688 87.550781 73.429688 87.550781 Z M 71.570312 84.3125 L 70.980469 84.609375 C 70.6875 84.804688 70.488281 84.902344 70.390625 85 C 70.292969 85.097656 70.292969 85.195312 70.195312 85.292969 C 70.195312 85.390625 70.195312 85.488281 70.292969 85.6875 C 70.390625 85.785156 70.488281 85.882812 70.589844 85.980469 C 70.6875 85.980469 70.785156 85.980469 70.882812 85.980469 C 70.980469 85.980469 71.175781 85.882812 71.46875 85.6875 L 72.058594 85.390625 C 72.15625 85.292969 71.570312 84.3125 71.570312 84.3125 Z M 74.019531 83.332031 L 73.234375 83.628906 C 72.941406 82.941406 73.234375 82.351562 73.921875 81.765625 C 74.3125 81.46875 74.707031 81.371094 75.097656 81.371094 C 75.390625 81.371094 75.6875 81.570312 75.882812 81.765625 C 75.980469 81.960938 76.078125 82.15625 76.078125 82.351562 C 76.078125 82.550781 76.078125 82.746094 75.882812 83.039062 C 76.175781 82.941406 76.46875 82.941406 76.667969 83.039062 C 76.863281 83.136719 77.058594 83.234375 77.253906 83.429688 C 77.449219 83.726562 77.550781 84.117188 77.449219 84.410156 C 77.351562 84.804688 77.058594 85.097656 76.570312 85.390625 C 76.175781 85.6875 75.882812 85.785156 75.589844 85.882812 C 75.292969 85.980469 74.902344 85.785156 74.609375 85.488281 L 75.097656 84.804688 C 75.292969 85 75.488281 85 75.6875 85 C 75.785156 85 75.980469 84.902344 76.175781 84.804688 C 76.371094 84.609375 76.570312 84.511719 76.570312 84.3125 C 76.570312 84.117188 76.570312 84.019531 76.46875 83.824219 C 76.371094 83.726562 76.273438 83.628906 76.078125 83.628906 C 75.882812 83.628906 75.6875 83.726562 75.488281 83.824219 L 75.292969 83.921875 L 74.902344 83.429688 L 75 83.332031 C 75.195312 83.234375 75.292969 83.039062 75.390625 82.84375 C 75.390625 82.648438 75.390625 82.449219 75.292969 82.351562 C 75.195312 82.253906 75.097656 82.15625 74.902344 82.15625 C 74.804688 82.15625 74.609375 82.15625 74.410156 82.253906 C 74.019531 82.648438 73.921875 82.941406 74.019531 83.332031 Z M 77.253906 82.351562 C 76.960938 82.058594 76.765625 81.667969 76.667969 81.371094 C 76.46875 81.078125 76.46875 80.882812 76.46875 80.589844 C 76.46875 80.292969 76.46875 80.097656 76.570312 79.902344 C 76.667969 79.609375 76.863281 79.410156 77.15625 79.117188 C 77.648438 78.726562 78.136719 78.429688 78.726562 78.53125 C 79.3125 78.53125 79.804688 78.824219 80.292969 79.3125 C 80.785156 79.804688 80.980469 80.390625 80.980469 80.980469 C 80.980469 81.570312 80.785156 82.058594 80.292969 82.550781 C 79.804688 82.941406 79.3125 83.234375 78.726562 83.234375 C 78.234375 83.136719 77.746094 82.84375 77.253906 82.351562 Z M 77.84375 81.667969 C 78.136719 82.058594 78.53125 82.253906 78.921875 82.253906 C 79.214844 82.253906 79.511719 82.15625 79.804688 81.960938 C 80.097656 81.765625 80.195312 81.46875 80.195312 81.078125 C 80.195312 80.785156 80 80.390625 79.707031 80 C 79.3125 79.609375 79.019531 79.410156 78.628906 79.410156 C 78.332031 79.410156 78.039062 79.511719 77.746094 79.707031 C 77.449219 79.902344 77.351562 80.292969 77.351562 80.589844 C 77.351562 80.980469 77.550781 81.273438 77.84375 81.667969 Z M 79.3125 77.15625 L 80.488281 75.785156 C 80.6875 75.488281 80.882812 75.390625 81.078125 75.195312 C 81.175781 75.097656 81.371094 75 81.46875 75 C 81.667969 75 81.765625 75 81.960938 75 C 82.15625 75 82.253906 75.097656 82.449219 75.195312 C 82.550781 75.292969 82.648438 75.488281 82.746094 75.6875 C 82.746094 75.882812 82.746094 76.078125 82.746094 76.273438 C 82.941406 76.175781 83.234375 76.078125 83.429688 76.078125 C 83.628906 76.078125 83.921875 76.175781 84.117188 76.371094 C 84.214844 76.46875 84.410156 76.667969 84.410156 76.863281 C 84.511719 77.058594 84.511719 77.253906 84.511719 77.449219 C 84.511719 77.648438 84.410156 77.84375 84.3125 78.039062 C 84.214844 78.136719 84.019531 78.429688 83.628906 78.824219 L 82.648438 80 Z M 80.488281 76.960938 L 81.273438 77.648438 L 81.667969 77.253906 C 81.863281 76.960938 82.058594 76.863281 82.058594 76.765625 C 82.15625 76.667969 82.15625 76.570312 82.15625 76.371094 C 82.15625 76.273438 82.058594 76.175781 81.960938 76.078125 C 81.863281 75.980469 81.765625 75.980469 81.667969 75.980469 C 81.570312 75.980469 81.46875 75.980469 81.371094 76.078125 C 81.273438 76.175781 81.175781 76.273438 80.882812 76.667969 C 80.785156 76.570312 80.488281 76.960938 80.488281 76.960938 Z M 81.765625 78.136719 L 82.648438 78.921875 L 83.136719 78.332031 C 83.332031 78.136719 83.53125 77.941406 83.53125 77.84375 C 83.628906 77.746094 83.628906 77.648438 83.628906 77.449219 C 83.628906 77.351562 83.53125 77.253906 83.429688 77.15625 C 83.332031 77.058594 83.234375 77.058594 83.136719 76.960938 C 83.039062 76.960938 82.941406 76.960938 82.84375 77.058594 C 82.746094 77.058594 82.550781 77.253906 82.253906 77.648438 Z M 87.941406 73.234375 L 87.351562 74.019531 L 86.273438 73.726562 L 85.292969 75.195312 L 85.882812 76.078125 L 85.292969 76.863281 L 82.746094 72.941406 L 83.234375 72.15625 C 83.332031 72.15625 87.941406 73.234375 87.941406 73.234375 Z M 85.589844 73.53125 L 83.921875 73.039062 L 84.902344 74.511719 Z M 10.195312 40 L 10.589844 39.214844 C 11.078125 39.410156 11.371094 39.707031 11.46875 40.097656 C 11.667969 40.390625 11.667969 40.882812 11.570312 41.273438 C 11.46875 41.863281 11.175781 42.253906 10.6875 42.550781 C 10.195312 42.84375 9.609375 42.84375 8.921875 42.746094 C 8.234375 42.550781 7.648438 42.253906 7.351562 41.765625 C 7.058594 41.273438 6.960938 40.785156 7.058594 40.195312 C 7.15625 39.707031 7.449219 39.3125 7.84375 39.019531 C 8.039062 38.824219 8.332031 38.824219 8.726562 38.726562 L 8.726562 39.609375 C 8.53125 39.609375 8.332031 39.707031 8.136719 39.804688 C 8.039062 40 7.941406 40.195312 7.84375 40.488281 C 7.746094 40.785156 7.84375 41.078125 8.039062 41.371094 C 8.234375 41.667969 8.53125 41.765625 9.117188 41.960938 C 9.707031 42.058594 10.097656 42.058594 10.390625 41.960938 C 10.6875 41.863281 10.882812 41.570312 10.882812 41.273438 C 10.882812 41.078125 10.882812 40.785156 10.785156 40.589844 C 10.6875 40.292969 10.488281 40.097656 10.195312 40 Z M 11.863281 39.410156 L 10.195312 37.15625 L 7.84375 37.746094 L 8.234375 36.765625 L 9.804688 36.371094 L 8.824219 35.097656 L 9.214844 34.117188 L 10.785156 36.175781 L 13.429688 35.488281 L 13.039062 36.46875 L 11.273438 36.863281 L 12.351562 38.332031 C 12.253906 38.429688 11.863281 39.410156 11.863281 39.410156 Z M 13.429688 35.195312 L 9.3125 33.628906 L 9.609375 32.746094 L 13.726562 34.3125 Z M 10.390625 31.175781 L 11.765625 28.429688 L 15 30.195312 L 15.195312 29.804688 L 16.765625 30.589844 L 16.371094 31.371094 L 15.488281 30.882812 L 14.214844 33.332031 L 15.097656 33.726562 L 14.804688 34.410156 L 13.234375 33.628906 L 13.429688 33.332031 C 13.136719 33.039062 12.84375 32.648438 12.449219 32.351562 C 12.058594 32.058594 11.46875 31.765625 10.785156 31.371094 Z M 11.46875 30.785156 C 12.648438 31.371094 13.429688 31.960938 13.921875 32.449219 L 14.707031 30.980469 L 12.15625 29.609375 C 12.058594 29.609375 11.46875 30.785156 11.46875 30.785156 Z M 16.175781 29.707031 L 12.449219 27.351562 L 12.941406 26.570312 L 14.410156 27.449219 L 15.292969 25.980469 L 13.824219 25 L 14.3125 24.214844 L 18.039062 26.570312 L 17.648438 27.449219 L 15.980469 26.46875 L 15.097656 27.941406 L 16.765625 29.019531 C 16.667969 28.921875 16.175781 29.707031 16.175781 29.707031 Z M 16.960938 24.609375 C 16.667969 24.3125 16.371094 24.019531 16.273438 23.726562 C 16.175781 23.53125 16.078125 23.234375 16.078125 23.039062 C 16.078125 22.84375 16.078125 22.550781 16.175781 22.351562 C 16.273438 22.058594 16.46875 21.765625 16.667969 21.570312 C 17.058594 21.078125 17.550781 20.785156 18.136719 20.785156 C 18.726562 20.785156 19.214844 20.980469 19.804688 21.46875 C 20.292969 21.960938 20.589844 22.449219 20.6875 23.039062 C 20.6875 23.628906 20.589844 24.117188 20.097656 24.609375 C 19.707031 25.097656 19.214844 25.390625 18.628906 25.390625 C 18.039062 25.390625 17.449219 25.097656 16.960938 24.609375 Z M 17.550781 23.921875 C 17.941406 24.214844 18.234375 24.410156 18.628906 24.410156 C 19.019531 24.410156 19.3125 24.3125 19.511719 24.019531 C 19.707031 23.726562 19.804688 23.429688 19.804688 23.136719 C 19.804688 22.84375 19.511719 22.449219 19.117188 22.15625 C 18.726562 21.863281 18.429688 21.667969 18.039062 21.667969 C 17.648438 21.667969 17.449219 21.765625 17.15625 22.058594 C 16.960938 22.351562 16.863281 22.648438 16.863281 22.941406 C 16.960938 23.234375 17.15625 23.53125 17.550781 23.921875 Z M 21.570312 19.019531 L 22.058594 19.609375 L 21.078125 20.589844 C 21.371094 20.882812 21.667969 20.980469 21.960938 20.980469 C 22.253906 20.980469 22.449219 20.882812 22.648438 20.6875 C 22.84375 20.488281 22.941406 20.292969 22.941406 20.097656 C 22.941406 19.902344 22.84375 19.609375 22.746094 19.410156 L 23.53125 19.019531 C 23.726562 19.410156 23.824219 19.804688 23.824219 20.195312 C 23.824219 20.589844 23.53125 20.980469 23.234375 21.273438 C 22.84375 21.667969 22.449219 21.863281 22.058594 21.863281 C 21.667969 21.863281 21.371094 21.863281 21.078125 21.667969 C 20.785156 21.570312 20.488281 21.371094 20.195312 21.078125 C 19.707031 20.589844 19.511719 20.097656 19.410156 19.511719 C 19.410156 18.921875 19.609375 18.429688 20 18.039062 C 20.292969 17.648438 20.6875 17.449219 21.078125 17.449219 C 21.46875 17.449219 21.765625 17.449219 22.15625 17.648438 L 21.667969 18.429688 C 21.46875 18.332031 21.273438 18.234375 21.078125 18.332031 C 20.882812 18.332031 20.6875 18.429688 20.488281 18.628906 C 20.292969 18.824219 20.195312 19.117188 20.195312 19.410156 C 20.195312 19.707031 20.292969 20 20.488281 20.195312 C 20.589844 20 21.570312 19.019531 21.570312 19.019531 Z M 22.550781 15.6875 L 24.019531 14.707031 C 24.3125 14.511719 24.511719 14.410156 24.707031 14.3125 C 24.804688 14.214844 25 14.214844 25.195312 14.214844 C 25.292969 14.214844 25.488281 14.214844 25.6875 14.3125 C 25.882812 14.410156 25.980469 14.511719 26.078125 14.707031 C 26.175781 14.902344 26.273438 15 26.273438 15.292969 C 26.273438 15.488281 26.273438 15.6875 26.175781 15.882812 C 26.46875 15.785156 26.667969 15.785156 26.960938 15.882812 C 27.15625 15.980469 27.351562 16.078125 27.550781 16.273438 C 27.648438 16.46875 27.746094 16.667969 27.746094 16.863281 C 27.746094 17.058594 27.746094 17.253906 27.746094 17.449219 C 27.648438 17.648438 27.550781 17.84375 27.351562 17.941406 C 27.253906 18.039062 26.960938 18.234375 26.46875 18.628906 L 25.195312 19.511719 C 25.097656 19.3125 22.550781 15.6875 22.550781 15.6875 Z M 23.628906 15.785156 L 24.214844 16.667969 L 24.707031 16.371094 C 25 16.175781 25.195312 16.078125 25.195312 15.980469 C 25.292969 15.882812 25.390625 15.785156 25.390625 15.6875 C 25.390625 15.589844 25.390625 15.488281 25.292969 15.390625 C 25.195312 15.292969 25.097656 15.195312 25 15.195312 C 24.902344 15.195312 24.804688 15.195312 24.609375 15.292969 C 24.511719 15.292969 24.3125 15.488281 24.019531 15.6875 C 24.117188 15.488281 23.628906 15.785156 23.628906 15.785156 Z M 24.707031 17.253906 L 25.390625 18.234375 L 26.078125 17.746094 C 26.273438 17.550781 26.46875 17.449219 26.570312 17.351562 C 26.667969 17.253906 26.667969 17.15625 26.667969 17.058594 C 26.667969 16.960938 26.667969 16.863281 26.570312 16.667969 C 26.46875 16.570312 26.371094 16.46875 26.273438 16.46875 C 26.175781 16.46875 26.078125 16.46875 25.980469 16.46875 C 25.882812 16.46875 25.6875 16.667969 25.292969 16.863281 C 25.292969 16.863281 24.707031 17.253906 24.707031 17.253906 Z M 28.726562 16.765625 L 26.570312 12.941406 L 27.84375 12.253906 C 28.332031 11.960938 28.628906 11.863281 28.824219 11.765625 C 29.117188 11.667969 29.3125 11.765625 29.609375 11.765625 C 29.902344 11.863281 30.097656 12.058594 30.292969 12.351562 C 30.390625 12.550781 30.488281 12.84375 30.488281 13.039062 C 30.488281 13.234375 30.488281 13.429688 30.390625 13.628906 C 30.292969 13.824219 30.195312 13.921875 30.097656 14.019531 C 30 14.117188 29.707031 14.3125 29.3125 14.511719 L 28.824219 14.804688 L 29.609375 16.273438 C 29.511719 16.371094 28.726562 16.765625 28.726562 16.765625 Z M 27.746094 13.136719 L 28.332031 14.214844 L 28.726562 14.019531 C 29.019531 13.824219 29.214844 13.726562 29.3125 13.628906 C 29.410156 13.53125 29.410156 13.429688 29.410156 13.332031 C 29.410156 13.234375 29.410156 13.136719 29.3125 12.941406 C 29.214844 12.84375 29.117188 12.746094 29.019531 12.648438 C 28.921875 12.648438 28.726562 12.648438 28.628906 12.648438 C 28.53125 12.648438 28.332031 12.746094 28.039062 12.941406 C 28.039062 12.941406 27.746094 13.136719 27.746094 13.136719 Z M 31.175781 12.84375 C 30.980469 12.449219 30.882812 12.058594 30.882812 11.765625 C 30.882812 11.570312 30.882812 11.273438 30.980469 11.078125 C 31.078125 10.882812 31.175781 10.6875 31.371094 10.488281 C 31.570312 10.292969 31.863281 10.097656 32.15625 9.902344 C 32.746094 9.609375 33.332031 9.609375 33.824219 9.804688 C 34.3125 10 34.707031 10.390625 35.097656 11.078125 C 35.390625 11.765625 35.390625 12.351562 35.195312 12.84375 C 35 13.332031 34.609375 13.824219 34.019531 14.019531 C 33.429688 14.3125 32.84375 14.3125 32.351562 14.117188 C 31.863281 13.921875 31.46875 13.53125 31.175781 12.84375 Z M 31.960938 12.449219 C 32.15625 12.941406 32.449219 13.234375 32.746094 13.332031 C 33.039062 13.429688 33.332031 13.429688 33.726562 13.332031 C 34.019531 13.234375 34.214844 12.941406 34.3125 12.648438 C 34.410156 12.351562 34.3125 11.960938 34.214844 11.46875 C 34.019531 10.980469 33.726562 10.6875 33.429688 10.589844 C 33.136719 10.488281 32.84375 10.488281 32.449219 10.589844 C 32.15625 10.6875 31.863281 10.980469 31.765625 11.273438 C 31.765625 11.570312 31.765625 11.960938 31.960938 12.449219 Z M 35.390625 8.628906 L 38.726562 7.648438 L 40 11.863281 L 39.117188 12.15625 L 38.136719 8.628906 L 36.46875 9.117188 L 37.449219 12.648438 L 36.570312 12.941406 C 36.667969 12.84375 35.390625 8.628906 35.390625 8.628906 Z M 40.882812 11.570312 L 40.195312 7.15625 L 43.429688 6.570312 L 43.53125 7.351562 L 41.175781 7.746094 L 41.371094 8.726562 L 43.53125 8.332031 L 43.628906 9.019531 L 41.46875 9.410156 L 41.667969 10.589844 L 44.117188 10.195312 L 44.214844 10.980469 C 44.214844 10.980469 40.882812 11.570312 40.882812 11.570312 Z M 44.609375 6.46875 L 45.390625 6.371094 L 45.589844 9.3125 L 47.15625 6.273438 L 48.039062 6.175781 L 48.332031 10.589844 L 47.550781 10.6875 L 47.351562 7.746094 L 45.882812 10.785156 L 45 10.882812 C 45 10.882812 44.609375 6.46875 44.609375 6.46875 Z M 46.863281 5 L 47.253906 5 C 47.253906 5.292969 47.15625 5.488281 47.058594 5.6875 C 46.863281 5.785156 46.667969 5.882812 46.371094 5.882812 C 46.078125 5.882812 45.882812 5.882812 45.6875 5.6875 C 45.488281 5.589844 45.390625 5.390625 45.390625 5.097656 L 45.785156 5.097656 C 45.785156 5.195312 45.882812 5.292969 45.980469 5.390625 C 46.078125 5.488281 46.175781 5.488281 46.371094 5.488281 C 46.570312 5.488281 46.667969 5.390625 46.765625 5.390625 C 46.765625 5.292969 46.863281 5.097656 46.863281 5 Z M 52.253906 9.019531 L 53.136719 9.3125 C 53.039062 9.804688 52.746094 10.195312 52.449219 10.390625 C 52.15625 10.589844 51.765625 10.6875 51.273438 10.6875 C 50.6875 10.6875 50.195312 10.488281 49.804688 10.097656 C 49.410156 9.707031 49.3125 9.117188 49.3125 8.429688 C 49.3125 7.746094 49.511719 7.15625 49.902344 6.765625 C 50.292969 6.371094 50.785156 6.175781 51.371094 6.175781 C 51.863281 6.175781 52.351562 6.371094 52.648438 6.667969 C 52.84375 6.863281 52.941406 7.15625 53.039062 7.449219 L 52.15625 7.648438 C 52.15625 7.449219 51.960938 7.253906 51.863281 7.058594 C 51.765625 6.960938 51.570312 6.863281 51.273438 6.863281 C 50.980469 6.863281 50.6875 6.960938 50.488281 7.15625 C 50.292969 7.351562 50.195312 7.746094 50.195312 8.332031 C 50.195312 8.921875 50.292969 9.3125 50.488281 9.511719 C 50.6875 9.707031 50.980469 9.902344 51.273438 9.902344 C 51.46875 9.902344 51.667969 9.804688 51.863281 9.707031 C 52.058594 9.511719 52.15625 9.3125 52.253906 9.019531 Z M 54.511719 6.371094 L 55.390625 6.46875 L 55.195312 8.234375 L 56.371094 8.332031 C 56.960938 8.429688 57.351562 8.628906 57.550781 8.921875 C 57.746094 9.214844 57.84375 9.511719 57.746094 9.902344 C 57.746094 10.195312 57.648438 10.488281 57.449219 10.589844 C 57.253906 10.785156 57.058594 10.882812 56.863281 10.980469 C 56.667969 10.980469 56.371094 10.980469 55.980469 10.980469 L 53.824219 10.785156 C 53.824219 10.785156 54.511719 6.371094 54.511719 6.371094 Z M 54.902344 10.097656 L 55.785156 10.195312 C 56.078125 10.195312 56.273438 10.195312 56.371094 10.195312 C 56.46875 10.195312 56.570312 10.195312 56.667969 10.097656 C 56.765625 10 56.863281 9.902344 56.863281 9.804688 C 56.863281 9.609375 56.863281 9.410156 56.667969 9.3125 C 56.570312 9.214844 56.273438 9.117188 55.980469 9.117188 L 55.097656 9.019531 C 55 9.019531 54.902344 10.097656 54.902344 10.097656 Z M 59.214844 7.058594 L 60.097656 7.253906 L 59.707031 9.117188 C 59.902344 9.117188 60 9.117188 60.097656 9.117188 C 60.195312 9.019531 60.292969 8.824219 60.589844 8.53125 C 60.785156 8.039062 61.078125 7.84375 61.273438 7.746094 C 61.46875 7.648438 61.765625 7.746094 62.15625 7.746094 C 62.15625 7.746094 62.15625 7.746094 62.253906 7.746094 L 62.15625 8.332031 L 62.058594 8.332031 C 61.863281 8.332031 61.765625 8.332031 61.667969 8.332031 C 61.570312 8.332031 61.46875 8.429688 61.46875 8.429688 C 61.371094 8.53125 61.273438 8.726562 61.175781 8.921875 C 61.078125 9.019531 60.980469 9.214844 60.882812 9.214844 C 60.785156 9.3125 60.6875 9.410156 60.488281 9.410156 C 60.589844 9.707031 60.785156 9.804688 60.785156 10 C 60.882812 10.195312 60.980469 10.488281 61.078125 10.785156 L 61.371094 12.058594 L 60.390625 11.863281 L 60.097656 10.589844 C 60.097656 10.589844 60.097656 10.589844 60.097656 10.488281 C 60.097656 10.488281 60.097656 10.390625 60 10.292969 C 60 10.097656 59.902344 9.902344 59.804688 9.804688 C 59.804688 9.804688 59.707031 9.804688 59.511719 9.707031 L 59.117188 11.570312 L 58.234375 11.371094 C 58.234375 11.371094 59.214844 7.058594 59.214844 7.058594 Z M 63.332031 8.136719 L 64.117188 8.429688 L 63.136719 11.175781 L 65.785156 9.019531 L 66.667969 9.410156 L 65.195312 13.53125 L 64.410156 13.234375 L 65.390625 10.488281 L 62.746094 12.648438 L 61.863281 12.351562 C 61.863281 12.351562 63.332031 8.136719 63.332031 8.136719 Z M 68.039062 10 L 68.726562 10.390625 L 67.351562 12.941406 L 70.292969 11.175781 L 71.078125 11.570312 L 69.019531 15.488281 L 68.234375 15.097656 L 69.609375 12.550781 L 66.667969 14.3125 L 65.882812 13.921875 Z M 70.6875 9.902344 L 71.078125 10.097656 C 70.980469 10.292969 70.785156 10.488281 70.488281 10.488281 C 70.292969 10.488281 70.097656 10.488281 69.804688 10.390625 C 69.609375 10.292969 69.410156 10.097656 69.3125 9.902344 C 69.214844 9.707031 69.214844 9.410156 69.3125 9.214844 L 69.707031 9.410156 C 69.707031 9.511719 69.707031 9.609375 69.707031 9.707031 C 69.707031 9.804688 69.804688 9.902344 70 10 C 70.097656 10.097656 70.292969 10.097656 70.390625 10.097656 C 70.488281 10.097656 70.589844 10.097656 70.6875 9.902344 Z M 73.53125 13.039062 L 74.3125 13.628906 L 73.824219 16.078125 L 75.882812 14.707031 L 76.667969 15.195312 L 73.53125 17.15625 C 73.234375 17.351562 72.941406 17.449219 72.648438 17.550781 C 72.449219 17.550781 72.15625 17.550781 71.960938 17.449219 C 71.765625 17.351562 71.570312 17.15625 71.46875 17.058594 L 71.863281 16.46875 C 71.960938 16.570312 72.058594 16.570312 72.15625 16.667969 C 72.253906 16.765625 72.449219 16.863281 72.550781 16.863281 C 72.648438 16.863281 72.84375 16.765625 73.039062 16.570312 C 73.039062 16.570312 73.53125 13.039062 73.53125 13.039062 Z M 74.511719 19.117188 L 77.449219 15.785156 L 78.136719 16.371094 L 76.960938 17.648438 L 78.234375 18.824219 L 79.410156 17.550781 L 80.097656 18.136719 L 77.15625 21.46875 L 76.46875 20.785156 L 77.746094 19.3125 L 76.46875 18.234375 L 75.195312 19.707031 C 75.195312 19.707031 74.511719 19.117188 74.511719 19.117188 Z M 77.84375 22.058594 L 80.980469 19.019531 L 81.570312 19.609375 L 78.429688 22.648438 Z M 82.351562 20.390625 L 83.53125 21.765625 C 83.726562 22.058594 83.921875 22.253906 84.019531 22.351562 C 84.117188 22.550781 84.117188 22.648438 84.214844 22.84375 C 84.214844 23.039062 84.214844 23.136719 84.214844 23.332031 C 84.117188 23.53125 84.019531 23.628906 83.921875 23.824219 C 83.824219 23.921875 83.628906 24.019531 83.429688 24.019531 C 83.234375 24.019531 83.039062 24.019531 82.84375 23.921875 C 82.941406 24.117188 82.941406 24.410156 82.941406 24.609375 C 82.941406 24.804688 82.746094 25 82.550781 25.195312 C 82.449219 25.292969 82.253906 25.390625 82.058594 25.488281 C 81.863281 25.589844 81.667969 25.589844 81.46875 25.488281 C 81.273438 25.488281 81.078125 25.292969 80.882812 25.195312 C 80.785156 25.097656 80.488281 24.804688 80.195312 24.410156 L 79.214844 23.234375 C 79.019531 23.332031 82.351562 20.390625 82.351562 20.390625 Z M 82.449219 21.570312 L 81.667969 22.253906 L 82.058594 22.648438 C 82.253906 22.941406 82.449219 23.039062 82.449219 23.136719 C 82.550781 23.234375 82.648438 23.234375 82.746094 23.332031 C 82.84375 23.332031 82.941406 23.332031 83.136719 23.234375 C 83.234375 23.136719 83.234375 23.039062 83.332031 22.941406 C 83.332031 22.84375 83.332031 22.746094 83.234375 22.648438 C 83.234375 22.550781 83.039062 22.351562 82.746094 22.058594 C 82.746094 21.960938 82.449219 21.570312 82.449219 21.570312 Z M 81.078125 22.746094 L 80.195312 23.53125 L 80.6875 24.117188 C 80.882812 24.3125 81.078125 24.511719 81.078125 24.609375 C 81.175781 24.707031 81.273438 24.707031 81.46875 24.707031 C 81.570312 24.707031 81.667969 24.707031 81.863281 24.609375 C 81.960938 24.511719 82.058594 24.410156 82.058594 24.3125 C 82.058594 24.214844 82.058594 24.117188 82.058594 24.019531 C 82.058594 23.921875 81.863281 23.726562 81.570312 23.332031 Z M 81.960938 26.765625 L 85.6875 24.410156 L 87.449219 27.15625 L 86.765625 27.449219 L 85.488281 25.488281 L 84.707031 25.980469 L 85.882812 27.84375 L 85.292969 28.234375 L 84.019531 26.46875 L 83.039062 27.15625 L 84.410156 29.214844 L 83.824219 29.609375 C 83.726562 29.609375 81.960938 26.765625 81.960938 26.765625 Z M 84.117188 30.195312 L 88.039062 28.136719 L 88.726562 29.410156 C 89.019531 29.902344 89.117188 30.195312 89.214844 30.390625 C 89.214844 30.6875 89.214844 30.882812 89.117188 31.175781 C 89.019531 31.371094 88.824219 31.667969 88.53125 31.765625 C 88.332031 31.863281 88.039062 31.960938 87.84375 31.960938 C 87.648438 31.960938 87.449219 31.960938 87.253906 31.863281 C 87.058594 31.765625 86.960938 31.667969 86.863281 31.570312 C 86.765625 31.371094 86.570312 31.175781 86.371094 30.785156 L 86.078125 30.292969 L 84.609375 31.078125 C 84.511719 30.980469 84.117188 30.195312 84.117188 30.195312 Z M 87.746094 29.3125 L 86.667969 29.902344 L 86.863281 30.292969 C 87.058594 30.589844 87.15625 30.785156 87.253906 30.882812 C 87.351562 30.980469 87.449219 30.980469 87.550781 30.980469 C 87.648438 30.980469 87.746094 30.980469 87.84375 30.882812 C 87.941406 30.785156 88.039062 30.6875 88.136719 30.589844 C 88.136719 30.488281 88.136719 30.292969 88.136719 30.195312 C 88.136719 30.097656 88.039062 29.902344 87.84375 29.609375 C 87.941406 29.707031 87.746094 29.3125 87.746094 29.3125 Z M 88.53125 35.6875 L 88.628906 36.570312 C 88.136719 36.570312 87.746094 36.570312 87.351562 36.371094 C 87.058594 36.175781 86.765625 35.882812 86.570312 35.390625 C 86.371094 34.804688 86.371094 34.3125 86.570312 33.824219 C 86.765625 33.332031 87.253906 32.941406 87.84375 32.648438 C 88.53125 32.351562 89.117188 32.351562 89.707031 32.550781 C 90.195312 32.746094 90.589844 33.136719 90.785156 33.726562 C 90.980469 34.214844 90.980469 34.707031 90.785156 35.097656 C 90.6875 35.390625 90.488281 35.589844 90.195312 35.785156 L 89.707031 35.097656 C 89.902344 35 90 34.804688 90.097656 34.609375 C 90.195312 34.410156 90.097656 34.214844 90.097656 34.019531 C 90 33.726562 89.804688 33.53125 89.511719 33.429688 C 89.214844 33.332031 88.824219 33.332031 88.332031 33.53125 C 87.84375 33.726562 87.449219 33.921875 87.351562 34.214844 C 87.253906 34.511719 87.15625 34.804688 87.351562 35.097656 C 87.449219 35.292969 87.550781 35.488281 87.84375 35.589844 C 87.941406 35.6875 88.234375 35.785156 88.53125 35.6875 Z M 91.765625 36.667969 L 91.960938 37.449219 L 89.214844 38.332031 L 92.550781 39.214844 L 92.746094 40.097656 L 88.53125 41.371094 L 88.234375 40.488281 L 90.980469 39.707031 L 87.746094 38.824219 L 87.550781 37.941406 C 87.550781 37.941406 91.765625 36.667969 91.765625 36.667969 Z M 88.824219 43.136719 L 92.449219 42.550781 L 92.253906 41.273438 L 92.941406 41.175781 L 93.53125 44.609375 L 92.84375 44.707031 L 92.648438 43.429688 L 89.019531 44.019531 C 88.921875 44.019531 88.824219 43.136719 88.824219 43.136719 Z M 89.214844 45.882812 L 93.628906 45.589844 L 93.824219 48.824219 L 93.039062 48.824219 L 92.84375 46.46875 L 91.863281 46.570312 L 92.058594 48.726562 L 91.273438 48.726562 L 91.078125 46.570312 L 89.902344 46.667969 L 90.097656 49.117188 L 89.3125 49.117188 Z M 89.410156 50.980469 L 93.039062 51.078125 L 93.039062 49.707031 L 93.824219 49.707031 L 93.824219 53.234375 L 93.039062 53.234375 L 93.039062 51.960938 L 89.410156 51.960938 Z M 50.097656 13.332031 C 70.292969 13.332031 86.765625 29.707031 86.765625 50 C 86.765625 70.195312 70.390625 86.667969 50.097656 86.667969 C 29.902344 86.667969 13.429688 70.292969 13.429688 50 C 13.429688 29.804688 29.804688 13.332031 50.097656 13.332031 Z M 50.097656 13.332031 "/>
<path style="fill:none;stroke-width:0.5679;stroke-linecap:butt;stroke-linejoin:miter;stroke:rgb(15.294118%,32.941176%,68.627451%);stroke-opacity:1;stroke-miterlimit:56.6064;" d="M 13.499063 50.900391 L 27.201328 50.900391 M 40.09875 51 L 42.298125 51 M 53.498203 51.099609 L 55.498359 51.099609 M 67.300078 51.099609 L 88.401328 51.199219 " transform="matrix(0.980392,0,0,0.980392,0,0)"/>
<path style="fill:none;stroke-width:0.5679;stroke-linecap:butt;stroke-linejoin:miter;stroke:rgb(15.294118%,32.941176%,68.627451%);stroke-opacity:1;stroke-miterlimit:56.6064;" d="M 33.201797 75.599531 C 33.998672 73.400156 35.600391 69.300234 37.500937 64.200234 C 41.298047 64.200234 44.700703 64.200234 48.601406 64.200234 C 47.298516 67.798125 45.700781 72.10125 44.401875 75.599531 C 40.8 75.599531 36.899297 75.499922 33.201797 75.599531 Z M 51.199219 13.598672 C 60.199922 13.598672 68.200547 19.499531 73.200937 28.699453 C 70.200703 28.699453 66.798047 28.799063 63.901406 28.699453 C 57.801328 44.999531 48.298594 70.101094 46.298437 75.599531 C 52.398516 75.599531 59.100234 73.101328 60.399141 69.599063 L 74.599453 31.600078 C 77.101641 37.301719 78.599766 43.899844 78.599766 51 C 78.599766 71.599219 66.3 88.401328 51.099609 88.401328 C 35.998828 88.401328 23.699063 71.599219 23.699063 51 C 23.699063 30.400781 35.998828 13.598672 51.199219 13.598672 Z M 31.400859 62.100469 C 28.500234 62.100469 25.400391 55.900781 26.20125 53.801016 C 29.101875 45.601172 32.600156 36.799687 35.600391 28.699453 C 42.198516 28.699453 45.601172 28.699453 48.501797 28.699453 C 44.999531 37.998984 39.799922 51.900469 35.998828 62.100469 C 34.600313 62.100469 32.699766 62.000859 31.400859 62.100469 Z M 38.198203 62.100469 C 39.501094 58.598203 44.899922 44.198672 45.999609 41.50125 C 49.701094 41.50125 53.298984 41.50125 57.100078 41.50125 C 56.000391 44.401875 50.29875 59.598281 49.398281 62.100469 C 45.700781 62.100469 41.999297 62.100469 38.198203 62.100469 Z M 46.700859 39.501094 C 48.099375 35.899219 49.800703 31.400859 50.800781 28.699453 C 54.299062 28.699453 58.199766 28.699453 61.90125 28.699453 C 60.901172 31.400859 58.701797 37.098516 57.801328 39.501094 C 54.000234 39.501094 50.501953 39.501094 46.700859 39.501094 Z M 46.700859 39.501094 " transform="matrix(0.980392,0,0,0.980392,0,0)"/>
<path style="fill:none;stroke-width:0.5679;stroke-linecap:butt;stroke-linejoin:miter;stroke:rgb(15.294118%,32.941176%,68.627451%);stroke-opacity:1;stroke-miterlimit:56.6064;" d="M 51.398438 13.598672 C 56.498438 13.598672 61.100391 19.599141 63.901406 28.898672 C 57.801328 45.19875 48.398203 70.200703 46.398047 75.599531 C 52.498125 75.599531 59.199844 73.101328 60.49875 69.599063 L 66.901641 52.601719 C 66.598828 72.499688 59.801484 88.401328 51.498047 88.401328 C 46.900078 88.401328 42.700547 83.400937 39.799922 75.599531 C 41.401641 75.599531 42.899766 75.599531 44.401875 75.599531 C 45.700781 72.10125 47.298516 67.798125 48.601406 64.200234 C 44.700703 64.200234 41.198438 64.200234 37.500937 64.200234 L 37.098516 65.200312 C 36.899297 63.801797 36.700078 62.299688 36.500859 60.801563 L 48.501797 28.699453 L 38.999063 28.699453 C 41.800078 19.599141 46.298437 13.598672 51.398438 13.598672 Z M 38.198203 62.100469 C 39.501094 58.598203 44.899922 44.198672 45.999609 41.50125 C 49.701094 41.50125 53.298984 41.50125 57.100078 41.50125 C 56.000391 44.401875 50.29875 59.598281 49.398281 62.100469 C 45.700781 62.100469 41.999297 62.100469 38.198203 62.100469 Z M 46.700859 39.501094 C 48.099375 35.899219 49.800703 31.400859 50.800781 28.699453 C 54.299062 28.699453 58.199766 28.699453 61.90125 28.699453 C 60.901172 31.400859 58.701797 37.098516 57.801328 39.501094 C 54.000234 39.501094 50.501953 39.501094 46.700859 39.501094 Z M 46.700859 39.501094 " transform="matrix(0.980392,0,0,0.980392,0,0)"/>
<path style="fill:none;stroke-width:0.5679;stroke-linecap:butt;stroke-linejoin:miter;stroke:rgb(15.294118%,32.941176%,68.627451%);stroke-opacity:1;stroke-miterlimit:56.6064;" d="M 51.398438 13.801875 L 51.398438 28.699453 M 51.398438 39.501094 L 51.398438 41.50125 M 51.498047 56.498438 L 51.498047 61.801641 M 51.498047 75.001875 L 51.498047 88.401328 " transform="matrix(0.980392,0,0,0.980392,0,0)"/>
<path style="fill:none;stroke-width:0.5679;stroke-linecap:butt;stroke-linejoin:miter;stroke:rgb(15.294118%,32.941176%,68.627451%);stroke-opacity:1;stroke-miterlimit:56.6064;" d="M 73.400156 21.10125 C 67.00125 25.898438 59.100234 28.599844 51 28.599844 C 42.899766 28.599844 34.99875 25.998047 28.599844 21.10125 " transform="matrix(0.980392,0,0,0.980392,0,0)"/>
<path style="fill:none;stroke-width:0.5679;stroke-linecap:butt;stroke-linejoin:miter;stroke:rgb(15.294118%,32.941176%,68.627451%);stroke-opacity:1;stroke-miterlimit:56.6064;" d="M 28.400625 80.599922 C 31.30125 78.500156 34.401094 76.699219 37.799766 75.499922 M 44.999531 73.698984 C 45.700781 73.599375 46.398047 73.499766 47.099297 73.400156 M 55.801172 73.599375 C 62.200078 74.499844 68.200547 76.998047 73.400156 80.998359 " transform="matrix(0.980392,0,0,0.980392,0,0)"/>
<path style=" stroke:none;fill-rule:evenodd;fill:rgb(15.294118%,32.941176%,68.627451%);fill-opacity:1;" d="M 32.550781 74.117188 C 33.332031 71.960938 34.902344 67.941406 36.765625 62.941406 C 40.488281 62.941406 43.824219 62.941406 47.648438 62.941406 C 46.371094 66.46875 44.804688 70.6875 43.53125 74.117188 C 40 74.117188 36.175781 74.019531 32.550781 74.117188 Z M 45.390625 74.117188 C 47.351562 68.824219 56.667969 44.117188 62.648438 28.136719 C 66.371094 28.234375 70.6875 28.136719 74.214844 28.136719 C 72.253906 33.53125 62.941406 58.136719 59.214844 68.136719 C 57.941406 71.570312 51.371094 74.117188 45.390625 74.117188 Z M 30.785156 60.882812 C 27.941406 60.882812 24.902344 54.804688 25.6875 52.746094 C 28.53125 44.707031 31.960938 36.078125 34.902344 28.136719 C 41.371094 28.136719 44.707031 28.136719 47.550781 28.136719 C 44.117188 37.253906 39.019531 50.882812 35.292969 60.882812 C 33.921875 60.882812 32.058594 60.785156 30.785156 60.882812 Z M 37.449219 60.882812 C 38.726562 57.449219 44.019531 43.332031 45.097656 40.6875 C 48.726562 40.6875 52.253906 40.6875 55.980469 40.6875 C 54.902344 43.53125 49.3125 58.429688 48.429688 60.882812 C 44.804688 60.882812 41.175781 60.882812 37.449219 60.882812 Z M 45.785156 38.726562 C 47.15625 35.195312 48.824219 30.785156 49.804688 28.136719 C 53.234375 28.136719 57.058594 28.136719 60.6875 28.136719 C 59.707031 30.785156 57.550781 36.371094 56.667969 38.726562 C 52.941406 38.726562 49.511719 38.726562 45.785156 38.726562 Z M 45.785156 38.726562 "/>
</g>
</svg>
